<?xml version="1.0" encoding="UTF-8" standalone="no"?>
<svg
   xmlns:dc="http://purl.org/dc/elements/1.1/"
   xmlns:cc="http://creativecommons.org/ns#"
   xmlns:rdf="http://www.w3.org/1999/02/22-rdf-syntax-ns#"
   xmlns:svg="http://www.w3.org/2000/svg"
   xmlns="http://www.w3.org/2000/svg"
   xmlns:sodipodi="http://sodipodi.sourceforge.net/DTD/sodipodi-0.dtd"
   xmlns:inkscape="http://www.inkscape.org/namespaces/inkscape"
   version="1.1"
   id="Слой_1"
   x="0px"
   y="0px"
   viewBox="0 0 3758.6194 2834.781"
   xml:space="preserve"
   sodipodi:docname="happy_formation.svg"
   width="3758.6194"
   height="2834.781"
   inkscape:version="1.0.2 (e86c870879, 2021-01-15)"><metadata
   id="metadata628"><rdf:RDF><cc:Work
       rdf:about=""><dc:format>image/svg+xml</dc:format><dc:type
         rdf:resource="http://purl.org/dc/dcmitype/StillImage" /><dc:title></dc:title></cc:Work></rdf:RDF></metadata><defs
   id="defs626" /><sodipodi:namedview
   pagecolor="#ffffff"
   bordercolor="#666666"
   borderopacity="1"
   objecttolerance="10"
   gridtolerance="10"
   guidetolerance="10"
   inkscape:pageopacity="0"
   inkscape:pageshadow="2"
   inkscape:window-width="1535"
   inkscape:window-height="991"
   id="namedview624"
   showgrid="false"
   fit-margin-top="0"
   fit-margin-left="0"
   fit-margin-right="0"
   fit-margin-bottom="0"
   inkscape:zoom="0.22685714"
   inkscape:cx="1982.5"
   inkscape:cy="1387.381"
   inkscape:window-x="26"
   inkscape:window-y="23"
   inkscape:window-maximized="0"
   inkscape:current-layer="Слой_1" />
<style
   type="text/css"
   id="style346">
	.st0{fill:#D0F0E4;}
	.st1{fill:none;stroke:#FFCF2D;stroke-width:6;stroke-miterlimit:10;}
	.st2{fill:none;stroke:#FE5244;stroke-width:5;stroke-miterlimit:10;}
	.st3{fill:#A0505A;}
	.st4{fill:#FFCF2D;}
	.st5{fill:#FFFFFF;stroke:#9A3B82;stroke-width:5;stroke-miterlimit:10;}
	.st6{fill:none;stroke:#9A3B82;stroke-width:5;stroke-miterlimit:10;}
	.st7{fill:#9A3B82;}
	.st8{fill:#FE5244;}
	.st9{fill:none;stroke:#FFFFFF;stroke-width:6;stroke-linecap:round;stroke-miterlimit:10;}
	.st10{fill:#FFFFFF;stroke:#3FB1B5;stroke-width:5;stroke-linecap:round;stroke-miterlimit:10;}
	.st11{fill:#FFFFFF;stroke:#FE5244;stroke-width:5;stroke-miterlimit:10;}
	.st12{fill:none;stroke:#73325A;stroke-width:4;stroke-linecap:round;stroke-miterlimit:10;}
	.st13{fill:#73325A;}
	.st14{fill:#FFFFFF;stroke:#9A3B82;stroke-width:4;stroke-miterlimit:10;}
	.st15{fill:#3FB1B5;}
	.st16{fill:none;stroke:#3FB1B5;stroke-width:5;stroke-linecap:round;stroke-miterlimit:10;}
	.st17{fill:#E57281;}
	.st18{fill:none;stroke:#FE5244;stroke-width:5;stroke-linecap:round;stroke-miterlimit:10;}
	.st19{fill:none;stroke:#9A3B82;stroke-width:4;stroke-linecap:round;stroke-miterlimit:10;}
	.st20{fill:#FFFFFF;}
</style>
<g
   id="GRASS"
   transform="translate(-517.5,-362.61899)">
	<path
   class="st0"
   d="m 4256.7,3193.8 -1178.9,2.1 c -144.5,1 -298,1.5 -457.2,1.5 -387.5,0 -741.7,-3.2 -1012.6,-8.5 H 517.5 c 0,-192.6 212,-108 267.9,-74 65,39.5 -18.7,-170.8 114,-170.8 113.6,0 178.6,57.1 178.6,57.1 0,0 3.1,-111 110.8,-112.6 107.7,-1.6 176.1,93.3 261.1,171.4 35.1,32.2 77.3,57.8 117.2,77.3 275.7,-5.8 646.1,-9.4 1053.5,-9.4 193,0 377.6,0.8 547.9,2.3 v 0 c 302.6,0 579.7,-159.1 658.3,-199 194.2,-98.8 102.2,136.7 102.2,136.7 0,0 149.7,-63 255,-62.5 148.7,0.6 72.7,188.4 72.7,188.4 z"
   id="path348" />
	<g
   id="g356">
		<g
   id="g354">
			<path
   class="st1"
   d="m 3645,3188 c 0,0 29.8,-268.2 -164.2,-354.5 0,0 -28.6,291.8 68.2,272.7 36.3,-7.2 -41.6,-78 -168.6,-81 0,0 97.3,163.5 215.5,165.8"
   id="path350" />
			<path
   class="st1"
   d="m 3596.3,3190.6 c 0,0 11.2,-122.7 130.8,-160.9 108,-34.4 -81,157.9 -81,157.9"
   id="path352" />
		</g>
	</g>
	<g
   id="g368">
		<path
   class="st2"
   d="m 910.7,3179.4 c 0,0 -171.5,-117.5 -219.8,-309.2 0,0 151.8,45.4 216.2,142 0,0 26.4,-219.9 90.2,-293.9 0,0 34.5,49.6 38.8,233.4 0,0 78.2,-133.2 136.4,-176.2 0,0 -8,173.3 -49.6,261.8 0,0 60.1,-46.8 100.7,-0.9 40.6,45.9 -39,113.1 -39,113.1"
   id="path358" />
		<path
   class="st2"
   d="m 997.4,2724.8 c 0,0 1.7,400.6 -16.5,452.5"
   id="path360" />
		<path
   class="st2"
   d="m 1166.9,2785.6 c 0,0 -119.6,307.3 -186,391.7"
   id="path362" />
		<path
   class="st2"
   d="m 1121.1,3038.7 c -4.4,16.1 -34.7,60.5 -40.7,41.4 -5.9,-19.1 48.6,-50 62.3,-55.1"
   id="path364" />
		<path
   class="st2"
   d="m 907.2,3012.3 c 8.1,15.6 35.5,59.4 7.8,58.3 -18.1,-0.7 -2.9,-92.6 -2.9,-92.6"
   id="path366" />
	</g>
</g>
<g
   id="_x32__CHARACTER"
   transform="translate(-517.5,-362.61899)">
	<g
   id="LEGS_1_">
		<g
   id="LEFT_LEG_1_">
			<g
   id="g375">
				<path
   class="st3"
   d="m 3168.1,2850.1 c -68,33.3 -61.6,97.2 -62.2,140.1 -0.7,45.7 -87.9,69.6 -87.9,69.6 23.2,-73.1 6.7,-148.4 6.7,-148.4 z"
   id="path371" />
				<path
   class="st4"
   d="m 3240.2,3018.4 -15.5,8.4 -32.5,-74.3 c -1.7,-3.9 -5.5,-6.2 -9.4,-6.2 -1.3,0 -2.7,0.3 -4,0.8 -3.3,1.4 -5.7,4.5 -6.1,8.1 l -14.3,107.7 -188.1,102.4 c -5.6,-13.4 29.3,-47 47.8,-105.5 0,0 87.3,-23.9 87.9,-69.6 0.6,-42.9 -5.7,-106.9 62.2,-140.1 l 14.3,-6.1 c 78,35.9 57.7,174.4 57.7,174.4 z"
   id="path373" />
			</g>
			<path
   class="st5"
   d="M 3182.4,2316.4 V 2844 l -155.6,67.5 -116.6,-529.7 c 52.2,2 139.2,-9 272.2,-65.4 z"
   id="path377" />
			<line
   class="st6"
   x1="3068"
   y1="2362.8"
   x2="3098.7"
   y2="2880.1001"
   id="line379" />
			<path
   class="st7"
   d="m 3182.4,2316.4 v 138.1 l -264.8,-38.3 -7.4,-34.4 c 52.2,2 139.2,-9 272.2,-65.4 z"
   id="path381" />
		</g>
		<g
   id="RIGHT_LEG_1_">
			<g
   id="g388">
				<path
   class="st4"
   d="m 3966.6,1958.4 -100.6,21.2 c -3.4,0.7 -6.8,-0.4 -9.2,-2.9 -1.7,-1.9 -2.6,-4.2 -2.6,-6.6 0,-2.6 1,-5.2 3.1,-7.1 l 56,-52.5 -12.4,-11.1 c 0,0 -130,25.5 -137.4,106.6 l 9.9,10.8 c 51.1,50.2 106.2,24.3 144.7,11.3 36.8,-12.4 80.7,44.7 89.4,56.5 0.1,0 0.3,0 0.4,0 58,-1.9 99.1,18.7 109.2,9.4 z"
   id="path384" />
				<path
   class="st3"
   d="m 3773.5,2016.8 c 51.1,50.2 106.2,24.3 144.7,11.3 41,-13.8 89.9,56.5 89.9,56.5 -72.6,2.3 -134.5,40.8 -134.5,40.8 z"
   id="path386" />
			</g>
			<path
   class="st5"
   d="m 3152.3,2320.9 c 0,0 25.3,170.9 219.4,167.7 194.1,-3.2 499.8,-364.2 499.8,-364.2 L 3764,2006.6 Z"
   id="path390" />
			<path
   class="st6"
   d="m 3264.2,2274.5 c 6.4,45 36.6,87.4 128.7,85.9 136.8,-2.2 330.1,-181.7 432.3,-287.5"
   id="path392" />
		</g>
	</g>
	<g
   id="DRESS_1_">
		<path
   class="st8"
   d="m 3999.5,1658 c -17.7,-6.7 -59.8,16.3 -91.5,56.3 -34.1,42.9 -47.9,88.5 -32.9,100.4 l -480.3,-255.4 c -23.6,-12.5 -50.8,8.9 -44.1,34.7 l 145.4,550.8 c -492.5,319.6 -650.4,223.8 -650.4,223.8 v -1810 c 0,0.1 0,0.1 0.1,0.2 4.2,10.7 49.3,3.2 100.8,-16.9 47.4,-18.4 83.6,-41 85.9,-52.8 l 0.1,-0.1 v 570.3 c 0,35.8 19.3,68.7 50.5,86.2 z"
   id="path396" />
		<path
   class="st8"
   d="m 3999.5,1658 c -17.7,-6.7 -59.8,16.3 -91.5,56.3 -34.1,42.9 -47.9,88.5 -32.9,100.4 l -480.3,-255.4 c -23.6,-12.5 -50.8,8.9 -44.1,34.7 l 145.4,553 c -125.2,81.3 -228.8,133.5 -313.7,169.5 -133,56.3 -220,67.4 -272.2,65.4 -45.5,-1.7 -64.5,-13.3 -64.5,-13.3 v -1810 c 0,0.1 0,0.1 0.1,0.2 4.2,10.7 49.3,3.2 100.8,-16.9 47.4,-18.4 83.6,-41 85.9,-52.8 l 0.1,-0.1 v 570.3 c 0,35.8 19.3,68.7 50.5,86.2 z"
   id="path398" />
		<line
   class="st9"
   x1="3310.6001"
   y1="1514.9"
   x2="3875.1001"
   y2="1821.1"
   id="line400" />
		<polygon
   class="st4"
   points="3356.3,1298.3 3096.5,1152.9 3033.2,1520.8 "
   id="polygon402" />
		<polyline
   class="st9"
   points="3096.5,1152.9 3033.2,1520.8 3356.3,1298.3   "
   id="polyline404" />
	</g>
	<g
   id="ARMS_1_">
		<g
   id="LEFT_ARM_1_">
			<g
   id="g417">
				<g
   id="g411">
					<path
   class="st10"
   d="m 3093.9,442.8 -417.1,85.5 c -15.4,3.2 -31.3,-10.5 -35.4,-30.6 -4.1,-20.1 5.1,-38.9 20.5,-42.1 L 3079,370.1 Z"
   id="path407" />
					
						<ellipse
   transform="matrix(0.9796,-0.2008,0.2008,0.9796,-18.7409,628.1555)"
   class="st10"
   cx="3086.3999"
   cy="406.39999"
   rx="28.5"
   ry="37.099998"
   id="ellipse409" />
				</g>
				<path
   class="st8"
   d="m 2855.9,479.2 c 0,0 -134.9,151.6 -120.2,185 19.2,19.1 34.8,27.5 32.5,34.6 -2.5,7.7 -34.8,54.2 -34.8,54.2 l -3.2,-34.5 -30.9,10.2 c 0,0 32.6,-47.6 34.7,-62.2 -13.4,-10.2 -40.7,-31.4 -39.8,-46.2 1,-15.7 48.8,-71.5 83.5,-110 l -52.3,17.3 -10.3,-48.3 94.1,-17.3 z"
   id="path413" />
				<circle
   class="st11"
   cx="2837.6001"
   cy="457.39999"
   r="28.4"
   id="circle415" />
			</g>
			<path
   class="st7"
   d="m 3032.5,489.1 c -2.3,11.8 -38.5,34.4 -85.9,52.8 -51.5,20 -96.6,27.6 -100.8,16.9 0,-0.1 0,-0.1 -0.1,-0.2 -3.6,-10.8 34.6,-35.5 85.8,-55.4 51.5,-20 96.6,-27.6 100.8,-16.9 0.3,0.8 0.4,1.7 0.2,2.8 z"
   id="path419" />
			<path
   class="st3"
   d="m 2997.8,405.1 -5.5,79.4 -2.6,38 c -12.5,6.6 -27.2,13.2 -43.1,19.4 -27,10.5 -52.2,17.5 -70.7,20.4 v -72.6 l 75.9,-15.6 c 0,0 4.2,-27.1 12.2,-49.8 7.9,-22.8 33.8,-19.2 33.8,-19.2 z"
   id="path421" />
			<path
   class="st12"
   d="m 2953.9,470.8 c -1.1,4.5 -34.1,15 -34.1,39"
   id="path423" />
			<path
   class="st13"
   d="m 2992.3,484.5 -2.6,38 c -12.5,6.6 -27.2,13.2 -43.1,19.4 -27,10.5 -52.2,17.5 -70.7,20.4 v -32.8 c 14.8,-8.7 34.1,-17.9 55.6,-26.3 22.4,-8.8 43.6,-15.2 60.8,-18.7 z"
   id="path425" />
			<g
   id="g435">
				<path
   class="st3"
   d="m 2942.6,444.8 -84.7,19.4 c -4.5,1 -8.7,-2.6 -8.7,-7.6 v -51.4 c 0,-6.9 4.2,-12.9 10.3,-14.9 l 83.7,-27.3 c 5.3,-1.7 10.6,2.5 10.6,8.4 V 430 c -0.1,7.1 -4.7,13.3 -11.2,14.8 z"
   id="path427" />
				<path
   class="st12"
   d="m 2879.2,456.2 c -4.6,1 -9,-2.5 -9,-7.3 v -49.3 c 0,-6.6 4.3,-12.4 10.6,-14.3"
   id="path429" />
				<path
   class="st12"
   d="m 2903.6,450.9 c -4.6,1 -9,-2.6 -9,-7.5 v -50.8 c 0,-6.8 4.3,-12.8 10.6,-14.7"
   id="path431" />
				<path
   class="st12"
   d="m 2930.9,445.1 c -4.6,1 -9,-2.7 -9,-7.7 v -52.6 c 0,-7 4.3,-13.2 10.6,-15.2"
   id="path433" />
			</g>
		</g>
		<g
   id="RIGHT_ARM_1_">
			<path
   class="st7"
   d="m 3962.3,1757.4 c -34.1,43 -72.3,69.1 -87.3,57.2 -15,-11.9 -1.2,-57.4 32.9,-100.4 31.8,-40 73.8,-63 91.5,-56.3 l 3.5,2 c 15.1,12 -6.5,54.6 -40.6,97.5 z"
   id="path438" />
			<path
   class="st3"
   d="m 4116.6,1829.7 -22.7,12 c -9,4.8 -20.2,1.4 -25,-7.6 l -23.9,-44.4 -36.2,-12.4 c 4,1.5 19.6,9.5 14.7,38.6 l -85,-31.7 -29.2,-10.9 -27.7,-17.7 c 6.5,-13.2 15.4,-27.4 26.5,-41.3 9.3,-11.7 19.4,-21.9 29.5,-30.3 l 28.9,20.2 29.6,3.2 48.1,5.1 c 7.7,0.8 15.1,3.4 21.6,7.5 l 38.4,27.3 c 5.6,4 9.3,10 10.2,16.8 l 7.8,54.6 c 0.7,4.5 -1.6,8.9 -5.6,11 z"
   id="path440" />
			<path
   class="st12"
   d="m 4060.7,1740.8 33.3,23.7 c 4.8,3.4 8,8.7 8.9,14.6 l 6.8,44.1 c 0.5,3.9 -1.4,7.7 -4.9,9.5"
   id="path442" />
			<path
   class="st12"
   d="m 4040.1,1748.7 33.3,23.7 c 4.8,3.4 8,8.7 8.9,14.6 l 6.8,44.1 c 0.5,3.9 -1.4,7.7 -4.9,9.5"
   id="path444" />
			<line
   class="st12"
   x1="4008.8"
   y1="1777.2"
   x2="3984.6001"
   y2="1769"
   id="line446" />
			<path
   class="st13"
   d="m 3996.1,1707.4 c -8.1,15.3 -19.9,32.7 -33.7,50.1 -7.9,9.9 -15.9,18.9 -23.9,26.7 l -29.2,-10.9 -27.7,-17.7 c 6.5,-13.2 15.4,-27.4 26.5,-41.3 9.3,-11.7 19.4,-21.9 29.5,-30.3 l 28.9,20.2 z"
   id="path448" />
		</g>
	</g>
	<g
   id="HEAD_1_">
		<g
   id="CAP">
			<polygon
   class="st8"
   points="3413.1,1204 3258.1,1093.2 3185.8,1004.9 3122.9,885.9 3336.8,980.8 "
   id="polygon452" />
			<path
   class="st7"
   d="m 3185.8,1004.9 c 0,0 70,12 98.2,90 l 14.9,-15 c 0,0 -27.1,-75.9 -98.7,-95.4 z"
   id="path454" />
			<path
   class="st4"
   d="m 3603,1101.8 c -24,-13.6 -46.2,-21.1 -53.3,-18.4 0.5,-1.2 0.8,-2.6 0.7,-4 -0.4,-4.4 -4,-7.7 -8.3,-7.7 -0.2,0 -0.4,0 -0.7,0 -4.6,0.4 -8,4.4 -7.7,9 0,0.3 0.1,0.6 0.1,0.8 l -25.4,16.3 c -5.7,3.7 -12.7,3.9 -18.7,0.6 -6,-3.3 -9.5,-9.3 -9.5,-16.1 v -36.5 c 0,-15.9 -7.9,-30.6 -21.2,-39.4 -13.3,-8.8 -30,-10.2 -44.6,-4 l -48.4,21.6 -18.4,-53.9 -215,-95.3 c -1.3,-0.6 -2.9,0 -3.5,1.4 -0.6,1.3 0,2.9 1.4,3.5 l 212.8,94.4 75.9,222.1 c 0.4,1.1 1.4,1.8 2.5,1.8 0.3,0 0.6,-0.1 0.9,-0.1 1.4,-0.5 2.1,-2 1.7,-3.4 l -56.5,-165.4 48.8,-21.8 c 13,-5.6 27.8,-4.3 39.5,3.5 11.8,7.8 18.8,20.8 18.8,35 v 36.5 c 0,8.8 4.6,16.6 12.3,20.8 3.6,2 7.5,3 11.4,3 4.4,0 8.8,-1.3 12.7,-3.8 l 25.2,-16.1 c 1.5,1.4 3.5,2.2 5.6,2.2 0.2,0 0.5,0 0.7,0 1.8,-0.1 3.4,-0.8 4.6,-1.9 0,7.1 18.2,23 43.2,37.2 5.4,3.1 10.8,5.9 15.9,8.3 3.1,-2.6 5.7,-5.7 7.8,-9.4 2.1,-3.6 3.4,-7.5 4,-11.5 -4.8,-3 -9.9,-6.2 -15.3,-9.3 z m -60.7,-17.6 c -2.3,0.2 -4.2,-1.5 -4.4,-3.7 -0.2,-2.2 1.5,-4.2 3.7,-4.4 2.2,-0.2 4.2,1.5 4.4,3.7 0.2,2.2 -1.5,4.2 -3.7,4.4 z"
   id="path456" />
		</g>
		<g
   id="HEAD_2_">
			<g
   id="NECK">
				<polygon
   class="st3"
   points="3261,1245 3261,1116.7 3171.9,1136.4 3134.9,1342.2 "
   id="polygon459" />
				<polygon
   class="st13"
   points="3223.1,1274.2 3261,1245 3261,1116.7 3171.9,1136.4 3167.3,1162.2 "
   id="polygon461" />
			</g>
			<g
   id="HAIR">
				<path
   class="st14"
   d="m 3187.9,1007 c 0,0 -63.1,-15.7 -82.8,20.9 -19.7,36.6 37.9,46.7 40.3,33.9 1.1,-5.6 -103.7,-5.5 -86.1,73.8 18.3,82.6 100.8,54.2 100.8,54.2 l 9.6,-53.4 z"
   id="path464" />
				<path
   class="st14"
   d="m 3260,1125.4 c 0,0 -94.2,122.8 -11.4,175 66.4,41.8 83.5,-17.1 65.7,-25.2 -19.3,-8.8 -63.6,157.2 72.8,156.7 136.7,-0.5 94.9,-171.2 26,-227.8 -32.9,-27 -142.7,-102.5 -142.7,-102.5 z"
   id="path466" />
			</g>
			<g
   id="HEAD_3_">
				<path
   class="st3"
   d="m 3257.2,1094.6 7.1,4.5 c 6.9,4.4 8.9,13.5 4.6,20.4 l -1.4,2.1 c -4.4,6.9 -13.5,9 -20.4,4.6 l -7.6,-4.8 c -8.4,6 -58.9,39.7 -90.1,6.2 -30.3,-32.5 39.7,-127.6 39.7,-127.6 59.4,18.6 82.6,71.4 82.6,71.4 z"
   id="path469" />
				<g
   id="g483">
					<path
   class="st12"
   d="m 3169.6,1021.6 c 0,0 16.4,6.1 14.8,20.2 -1.6,14.1 -16.4,36.3 -12.9,40.1 3.5,3.8 8.2,4.5 8.2,4.5"
   id="path471" />
					<path
   class="st12"
   d="m 3165.6,1094.9 c 0,0 12.2,6.8 28.8,4.2"
   id="path473" />
					
						<ellipse
   transform="matrix(0.3562,-0.9344,0.9344,0.3562,1066.3667,3694.5015)"
   class="st13"
   cx="3214.2"
   cy="1073.4"
   rx="7.1999998"
   ry="3.9000001"
   id="ellipse475" />
					
						<ellipse
   transform="matrix(0.3562,-0.9344,0.9344,0.3562,1056.6555,3638.3127)"
   class="st13"
   cx="3168.5"
   cy="1052.4"
   rx="6"
   ry="3.3"
   id="ellipse477" />
					<path
   class="st12"
   d="m 3252,1111.8 c 2.8,-4.4 8.6,-5.7 13,-2.9"
   id="path479" />
					<path
   class="st12"
   d="m 3215.1,1048.5 c 0,0 12.2,3.3 18.5,17.8"
   id="path481" />
				</g>
			</g>
			<path
   id="HAIR_1_"
   class="st14"
   d="m 3233.3,1024.2 c 0,0 -13.3,44.1 24.8,74.2 22.4,17.7 23.7,-3.6 23.7,-3.6 0,0 -2.9,-43.3 -48.5,-70.6 z" />
		</g>
	</g>
</g>
<g
   id="_x31__CHARACTER"
   transform="translate(-517.5,-362.61899)">
	<g
   id="DRESS">
		<path
   class="st15"
   d="m 2349.9,2154.3 c -10.5,-38.3 -183.9,-2.4 -374.9,67.1 -182.7,66.5 -331.2,156.2 -332.8,192.3 L 1542,1682.8 c -1.5,-10.3 -10.3,-17.9 -20.7,-17.9 -5.8,0 -11,2.3 -14.8,6.1 -3.8,3.8 -6.1,9 -6.1,14.8 v 624.2 0 c -1.2,-17.1 -45.3,-30.8 -99.5,-30.8 -54.2,0 -98.2,13.7 -99.5,30.8 v 0 -701.4 c 0,-59.2 31,-114 81.6,-144.6 l 65.7,-39.7 270.6,-163.4 251.7,-153.2 V 846.2 c 0,11.2 46.3,20.2 100.9,20.2 54.5,0 100.9,-8.9 100.9,-20.2 v 283.5 c 0,62.8 -30.7,122.1 -79.7,161.3 L 1940,1400.4 c -26.1,18.6 -32.4,54.8 -14.2,81.2 101.5,146.9 413.4,575.6 424,669.9 0.1,0.9 0.1,1.9 0.1,2.8 z"
   id="path490" />
		<line
   class="st9"
   x1="1968"
   y1="1085.3"
   x2="1968"
   y2="1162.3"
   id="line492" />
		<polygon
   class="st9"
   points="1719.5,1260.9 1647.2,1303.7 1664.2,1462.2 1520.8,1379.3 1448.9,1424.3 1782.6,1647.5 "
   id="polygon494" />
		<path
   class="st16"
   d="m 2339.2,2163.9 c -12,-33.1 -171,5.1 -362.1,74.6 -191.1,69.5 -337.8,157.4 -325.7,190.5 12,33.1 178.3,-1.1 369.4,-70.6 191.1,-69.5 330.5,-161.4 318.4,-194.5 z"
   id="path496" />
	</g>
	<g
   id="LEGS">
		<g
   id="RIGHT_LEG">
			<path
   class="st17"
   d="m 1904,2854.4 -11,19.2 -12.2,21.4 c -105.5,13.2 -124.1,-55.8 -124.1,-55.8 l 15.9,-31.6 c 42.6,26.2 96.6,40.1 131.4,46.8 z"
   id="path499" />
			<path
   class="st5"
   d="m 2284,2352.3 c -75,129.3 -344.7,507.7 -344.7,507.7 0,0 -14.1,-1.5 -35.3,-5.6 -34.8,-6.8 -88.8,-20.6 -131.5,-46.8 -9.9,-6.1 -19.1,-12.8 -27.4,-20.3 l 195.5,-397 49.4,-104.1 27.4,-57.8 c 3.3,-1.2 6.6,-2.3 9.8,-3.4 1.6,-0.6 3.2,-1.1 4.9,-1.7 4.9,-1.7 9.7,-3.3 14.5,-4.9 4,-1.3 7.9,-2.6 11.8,-4 11.9,-4 23.6,-7.7 35,-11.3 76.6,-24.2 142.1,-40.5 186.3,-45.5 9.8,13.7 21,33.4 27.4,58.1 9.3,36.1 8.2,82.7 -23.1,136.6 z"
   id="path501" />
			<g
   id="g515">
				<path
   class="st11"
   d="m 1956.6,3149.5 c -3.4,14.9 -21.9,20.2 -32.7,9.4 l -241.7,-240.9 75.6,-78.9 c 0,0 17.5,68.9 123.1,55.8 85.3,128.8 85.1,213.1 75.7,254.6 z"
   id="path503" />
				<path
   class="st8"
   d="m 1946.7,3164.7 c -16.4,6.3 -34.9,3 -48.2,-8.7 l -126.2,-110.9 c -3.1,-2.8 -3.5,-7.5 -0.9,-10.8 2.5,-3.1 2.3,-7.7 -0.6,-10.5 l -10.3,-10 c -2.8,-2.8 -7.3,-2.9 -10.3,-0.3 l -2.4,2 c -2.9,2.5 -7.1,2.5 -9.9,0 l -67.8,-58.9 c -8.8,-7.6 -9.1,-21.2 -0.8,-29.3 l 11.8,-11.4 243.2,245.5 c 7,7 17.1,7.3 24.3,2.6 z"
   id="path505" />
				<g
   id="g513">
					<path
   class="st18"
   d="m 1913.8,2927.1 c 0,0 20.5,18.2 -28.5,40.3"
   id="path507" />
					<path
   class="st18"
   d="m 1926.7,2949 c 0,0 20.5,18.2 -28.5,40.3"
   id="path509" />
					<path
   class="st18"
   d="m 1939.6,2970.9 c 0,0 20.5,18.2 -28.5,40.3"
   id="path511" />
				</g>
			</g>
			<path
   class="st7"
   d="m 2307.1,2215.7 c -65,-0.1 -131.6,11.2 -195.8,29 -5.1,-18 -12.3,-32.3 -17.9,-41.6 76.6,-24.2 142.1,-40.5 186.3,-45.5 9.9,13.8 21.1,33.5 27.4,58.1 z"
   id="path517" />
		</g>
		<g
   id="LEFT_LEG">
			<path
   class="st17"
   d="m 1629.3,2844.3 -19.3,24.7 -15.2,19.4 c -106.3,-2.1 -114.8,-73 -114.8,-73 l 23.1,-33.1 v 0 c 40.1,32.2 94.3,52.2 126.2,62 z"
   id="path520" />
			<path
   class="st5"
   d="m 2113.5,2325.6 c -5.8,24.7 -18.2,51.3 -41,78.7 -93.6,112.7 -416.8,447.3 -416.8,447.3 0,0 -126.2,-28.4 -180.1,-96.4 l 217.6,-309.1 c 0,0 0,0 0,0 l 80.3,-114.1 c 55.4,-29.5 125.8,-60.8 203.6,-89.2 40.6,-14.8 79.7,-28.1 116.3,-39.7 5.5,9.3 12.8,23.7 17.9,41.6 6.4,22.2 9.5,50 2.2,80.9 z"
   id="path522" />
			<g
   id="g536">
				<path
   class="st11"
   d="m 1633.2,3151.2 c -5.5,14.3 -24.5,16.9 -33.7,4.6 l -204.7,-273.1 86.1,-67.3 c 0,0 7.4,70.9 113.8,73 66.1,139.7 53.8,223.1 38.5,262.8 z"
   id="path524" />
				<path
   class="st8"
   d="m 1621.3,3164 c -17.1,3.9 -35,-2.1 -46.4,-15.4 l -109,-127.6 c -2.7,-3.2 -2.4,-7.9 0.6,-10.8 3,-2.7 3.3,-7.3 0.9,-10.5 l -8.8,-11.3 c -2.4,-3.1 -6.8,-3.9 -10.2,-1.8 l -2.6,1.7 c -3.2,2 -7.3,1.4 -9.8,-1.4 l -59,-67.7 c -7.6,-8.8 -6,-22.2 3.4,-29 l 13.3,-9.6 205.7,276.9 c 5.9,7.9 15.9,9.6 23.7,6.1 z"
   id="path526" />
				<g
   id="g534">
					<path
   class="st18"
   d="m 1624.9,2925.6 c 0,0 17.7,20.9 -34,35.8"
   id="path528" />
					<path
   class="st18"
   d="m 1636.6,2949.1 c 0,0 17.7,20.9 -34,35.8"
   id="path530" />
					<path
   class="st18"
   d="m 1646.2,2972.6 c 0,0 17.7,20.9 -34,35.8"
   id="path532" />
				</g>
			</g>
			<path
   class="st7"
   d="m 2111.4,2244.7 c -41.8,11.6 -82.6,25.9 -121.3,41.4 -167.1,67.3 -295.2,158.7 -296.8,159.8 l 80.3,-114.1 c 55.4,-29.5 125.8,-60.8 203.6,-89.2 13.6,-4.9 27,-9.7 40.3,-14.4 3.3,-1.2 6.6,-2.3 9.8,-3.4 1.6,-0.6 3.2,-1.1 4.9,-1.7 4.9,-1.7 9.7,-3.3 14.5,-4.9 4,-1.3 7.9,-2.6 11.8,-4 11.9,-4 23.6,-7.7 35,-11.3 5.5,9.6 12.7,23.9 17.9,41.8 z"
   id="path538" />
		</g>
	</g>
	<g
   id="ARMS">
		<g
   id="LEFT_ARM">
			<path
   class="st10"
   d="m 1498.2,2323.5 c 0,17.4 -43.5,31.6 -97.2,31.6 -53.7,0 -97.2,-14.1 -97.2,-31.6 0,-0.2 0,-0.5 0,-0.7 1.2,-17.1 44.3,-30.8 97.2,-30.8 52.9,0 96,13.7 97.2,30.8 0,0.2 0,0.5 0,0.7 z"
   id="path542" />
			<path
   class="st17"
   d="m 1459,2300 v 82.1 c 0,26.6 -14.7,50.9 -38.1,63.4 l -39.9,21.2 c -9.7,5.2 -20.6,7.9 -31.6,7.9 -4.7,0 -7.9,-3.9 -7.9,-8 0,-1.7 0.6,-3.5 1.8,-5 l 14.9,-18 c 2.1,-2.5 0.3,-6.2 -2.9,-6.2 h -87.7 l -16,20.2 c -8.5,10.7 -21.5,17 -35.1,17 h -4.6 c -5.7,0 -9.2,-6.1 -6.4,-11 l 1.8,-3.3 c -5.5,2.3 -11.5,3.6 -17.6,3.6 h -4.6 c -5.7,0 -9.2,-6.1 -6.4,-11 l 35.9,-39.6 24.9,-9.8 v 0.1 l 123.7,-48.6 v 0 -58.4 c 11.7,-1.5 24.4,-2.4 37.8,-2.4 21.7,-0.1 41.7,2.1 58,5.8 z"
   id="path544" />
			<line
   class="st19"
   x1="1236.3"
   y1="2407.7"
   x2="1206.3"
   y2="2459.2"
   id="line546" />
			<path
   class="st19"
   d="m 1350.6,2452.6 18.4,-22.5 c 3.6,-4.4 0.5,-10.9 -5.2,-10.9"
   id="path548" />
			<path
   class="st7"
   d="m 1459,2300 v 51.3 c -16.3,3.7 -36.3,5.9 -58,5.9 -13.4,0 -26.1,-0.8 -37.8,-2.4 v -58.4 c 11.7,-1.5 24.4,-2.4 37.8,-2.4 21.6,0.1 41.7,2.3 58,6 z"
   id="path550" />
		</g>
		<g
   id="RIGHT_ARM">
			<path
   class="st16"
   d="m 2170.7,835.5 c 0,11.3 -44.2,20.2 -98.7,20.2 -54.5,0 -98.7,-8.9 -98.7,-20.2 0,-11.3 44.2,-20.6 98.7,-20.6 54.5,0 98.7,9.4 98.7,20.6 z"
   id="path553" />
			<path
   class="st17"
   d="m 2041.9,852 c -12.2,-0.8 -23.3,-2 -32.9,-3.7 v -97.1 c 0,-3.2 0.7,-6.4 2.1,-9.3 l 31.4,-64.8 c 5.8,-12 18,-19.6 31.3,-19.6 h 38.5 l -84.2,154.9 c -0.4,0.7 -0.7,1.4 -1,2.1 -4.9,12.1 1.2,27.6 14.8,37.5 z"
   id="path555" />
			<path
   class="st7"
   d="m 2114.3,812.7 12.4,-21.6 v 58.6 c -10.2,1.3 -21.7,2.4 -34,2.9 z"
   id="path557" />
			<g
   id="g569">
				<g
   id="g563">
					<path
   class="st11"
   d="m 2295.7,473.6 -205,377.2 c -7.6,14 -28.4,17.3 -46.6,7.4 -18.2,-9.9 -26.7,-29.2 -19.1,-43.1 l 205,-377.2 z"
   id="path559" />
					
						<ellipse
   transform="matrix(0.4775,-0.8786,0.8786,0.4775,781.8137,2226.3313)"
   class="st11"
   cx="2262.8"
   cy="455.79999"
   rx="28.799999"
   ry="37.400002"
   id="ellipse561" />
				</g>
				<path
   class="st8"
   d="m 2170.1,612 96.9,-80.2 -1.5,29.2 31,7.7 -74,45.7 c 56.8,-12.2 158.8,-29.4 174.3,0.6 6.1,11.8 -5.4,35.9 -13.1,53.2 -4.8,36.5 186.6,-8.7 188.8,-9.2 l -29.5,27.3 29.5,16.8 c 0,0 -160.6,30.6 -202,22.2 -23.4,-4.8 -4.8,-36.2 11.5,-59.2 5,-17.7 -34.8,-23.5 -200.3,-5.5 z"
   id="path565" />
				<circle
   class="st11"
   cx="2171.5"
   cy="631.59998"
   r="28.6"
   id="circle567" />
			</g>
			<path
   class="st17"
   d="m 2193.9,727.4 -9.2,21.6 -10.8,25.2 -5.8,13.7 -8.9,20.9 c -0.2,0.6 -0.5,1.1 -0.8,1.7 0,0 0,0.1 -0.1,0.1 -2.9,4.9 -8.4,8 -14.4,8 h -70.6 c -8.5,0 -14.4,-8.1 -11.2,-15.6 l 5.1,-12 11.3,-26.5 9.7,-22.8 8.5,-20.1 c 2.5,-5.9 8.6,-9.7 15.3,-9.7 h 70.6 c 8.7,-0.1 14.5,8 11.3,15.5 z"
   id="path571" />
			<g
   id="g579">
				<path
   class="st19"
   d="m 2090.7,741.6 c 2.9,-3.3 7.2,-5.2 11.8,-5.2 h 67.4 c 7.1,0 12.2,6.1 11.5,12.6"
   id="path573" />
				<path
   class="st19"
   d="m 2081.5,764.5 c 2.9,-2.9 6.9,-4.6 11.2,-4.6 h 67.4 c 7.7,0 13.1,7.2 11.1,14.3"
   id="path575" />
				<path
   class="st19"
   d="m 2070.9,790.9 c 2.9,-2.7 6.8,-4.3 10.9,-4.3 h 67.4 c 8,0 13.5,7.7 10.9,15 0,0 0,0 0,0"
   id="path577" />
			</g>
			<path
   class="st17"
   d="m 2151,657.4 v 1.8 c 0,18.3 -14.8,33.2 -33.2,33.2 H 2083 v -35 z"
   id="path581" />
		</g>
	</g>
	<g
   id="HEAD">
		<g
   id="CAP_1_">
			<path
   class="st4"
   d="m 1305.9,1439.7 c -3.2,4.8 -6.5,9.3 -9.8,13.4 -3.6,-0.9 -7.1,-2.4 -10.3,-4.6 -3.2,-2.2 -5.9,-4.8 -8.1,-7.9 2.6,-4.5 5.5,-9.3 8.8,-14.1 16.2,-24 33.6,-40.5 39,-36.9 5.4,3.6 -3.4,26.1 -19.6,50.1 z"
   id="path585" />
			<path
   class="st15"
   d="m 1453.3,1079.4 -124.9,184.4 c -1.5,2.2 0.6,4.9 3.1,4.2 l 59.7,-19.2 c -7.3,8.7 -11.8,20 -11.8,32.2 v 58.1 c 0,22.7 -18.1,41.2 -40.7,41.8 -1.4,-2.6 -4.2,-4.4 -7.5,-4.4 -2.3,0 -4.4,0.9 -6,2.5 -1.6,1.6 -2.5,3.7 -2.4,6 0,4.6 3.8,8.4 8.5,8.4 v 0 c 4.2,0 7.7,-3.2 8.3,-7.2 25,-1.1 45.1,-21.8 45.1,-47.1 V 1281 c 0,-14.6 7.2,-27.9 18,-35.9 l 120.1,-38.6 154.2,-127.1 z M 1333.5,1387 c -0.6,0.6 -1.4,0.9 -2.2,0.9 -0.8,0 -1.6,-0.3 -2.2,-0.9 -0.6,-0.6 -0.9,-1.4 -0.9,-2.2 0,-0.8 0.3,-1.6 0.9,-2.2 0.6,-0.6 1.4,-0.9 2.2,-0.9 0,0 0,0 0,0 0.9,0 1.6,0.3 2.2,0.9 0.6,0.6 0.9,1.3 0.9,2.2 0.1,0.9 -0.3,1.6 -0.9,2.2 z"
   id="path587" />
			<g
   id="g591">
				<path
   class="st15"
   d="m 1317.5,1263.4 c -0.5,0 -1,-0.1 -1.5,-0.5 -1.2,-0.8 -1.5,-2.5 -0.7,-3.7 L 1445.5,1067 h 235.8 c 1.5,0 2.7,1.2 2.7,2.7 0,1.5 -1.2,2.7 -2.7,2.7 h -233 l -128.6,189.8 c -0.5,0.8 -1.3,1.2 -2.2,1.2 z"
   id="path589" />
			</g>
			<g
   id="g595">
				<path
   class="st20"
   d="m 1449.1,1232.4 -15,-6.8 0.8,-2.3 c 0.3,-0.9 7.6,-22.1 25.6,-44.6 16.7,-20.9 46,-46.6 91.1,-51 l 2.6,-0.2 2.6,18.9 -5.3,0.7 -1.9,-13.8 c -41.8,4.8 -69.2,29 -84.9,48.7 -14.1,17.6 -21.5,34.8 -23.8,40.8 l 10.5,4.8 z"
   id="path593" />
			</g>
		</g>
		<g
   id="HEAD_4_">
			<g
   id="NECK_1_">
				<polygon
   class="st17"
   points="1565.7,1244.5 1594.9,1266.7 1645.1,1304.8 1660.3,1456.2 1525.1,1378.2 1494.8,1279.2 "
   id="polygon598" />
				<polygon
   class="st7"
   points="1540.8,1387.3 1525.1,1378.2 1494.8,1279.2 1565.7,1244.5 1594.9,1266.7 "
   id="polygon600" />
			</g>
			<path
   id="HEAD_5_"
   class="st17"
   d="m 1534.8,1285.7 c -5.1,0.5 -15.4,-4.7 -27.1,-12.1 l -13.7,11.1 c -7.9,6.4 -19.5,5.3 -25.9,-2.6 -2.8,-3.4 -4.2,-7.6 -4.2,-11.7 0,-5.3 2.3,-10.6 6.8,-14.3 l 5.6,-4.6 c -14.7,-11 -26.2,-20.5 -26.2,-20.5 0,0 25.5,-76.6 107,-84.4 0,0 43.2,89.3 46.1,97.8 2.9,8.6 -39.6,38.4 -68.4,41.3 z" />
			<path
   id="HAIR_2_"
   class="st4"
   d="m 1476.3,1251.5 c -14.7,-11 -26.2,-20.5 -26.2,-20.5 0,0 9.4,-28.3 35.2,-52.3 -27,26.9 13.3,56.9 -9,72.8 z" />
			<g
   id="FACE">
				<path
   class="st19"
   d="m 1490.5,1199.9 c 0,0 4.3,-11.6 15.2,-17.6"
   id="path605" />
				<path
   class="st19"
   d="m 1568.5,1170.5 c 0,0 -15.1,-2.1 -22.6,2.5 -7.5,4.6 -7.5,28.4 4.5,43.3"
   id="path607" />
				<path
   class="st19"
   d="m 1557.6,1231.2 c 0,0 -9.3,8.3 -25.1,2.2"
   id="path609" />
				<path
   class="st19"
   d="m 1534,1229 c 0,0 -3.3,4.7 -3.1,10"
   id="path611" />
				
					<ellipse
   transform="matrix(0.9658,-0.2593,0.2593,0.9658,-261.7921,433.6165)"
   class="st7"
   cx="1512.9"
   cy="1209.2"
   rx="3"
   ry="5.9000001"
   id="ellipse613" />
				
					<ellipse
   transform="matrix(0.9658,-0.2593,0.2593,0.9658,-255.2721,444.5919)"
   class="st7"
   cx="1557.7"
   cy="1190"
   rx="2.7"
   ry="5.5"
   id="ellipse615" />
				<path
   class="st19"
   d="m 1512.9,1279.6 -23.1,-18 c -2.6,-2 -6.2,-1.8 -8.6,0.4 l -1.4,1.3 c -2.7,2.6 -2.7,6.8 0,9.4"
   id="path617" />
			</g>
		</g>
	</g>
</g>
</svg>
